<svg xmlns="http://www.w3.org/2000/svg" viewBox="0 0 1920 430"><defs><style>.cls-1,.cls-2,.cls-3{fill:#fff;}.cls-1{opacity:0.8;}.cls-2{opacity:0.6;}</style></defs><title>wave1_1</title><g id="Layer_2" data-name="Layer 2"><g id="Layer_1-2" data-name="Layer 1"><path class="cls-1" d="M0,309.22a548.7,548.7,0,0,1,188-74c21.42-4.06,86.18-15,178-4,174.16,20.88,215.07,93.06,378,120,22.82,3.78,105.34,16.14,199,2,291.24-44,366.27-260.8,644-333,69.61-18.09,180.63-34.14,332-1v413H0Z"/><path class="cls-2" d="M0,322.22c40.13-25.28,106.26-60.07,194-76,29.56-5.36,79.78-11.89,149-6,186.41,15.89,245.79,99.34,400,131,125.43,25.76,228.8-.15,288-15,240.65-60.33,283.44-208.27,500-282,80.06-27.25,207.32-52.34,388-15v373H0Z"/><path class="cls-3" d="M0,335.22a566.4,566.4,0,0,1,192-75c25.85-4.9,92.51-15.65,185-4,179.39,22.6,221.31,99.9,374,131,111.6,22.74,201.64,4.35,267-9,291-59.42,351.78-251.24,613-298,62.31-11.15,159.83-18.31,288,16v336H0Z"/></g></g></svg>